<svg width="123" height="32" viewBox="0 0 123 32" fill="none" xmlns="http://www.w3.org/2000/svg">
<g clip-path="url(#clip0_81_2)">
<path d="M21.1393 0V2.86871H2.97615C3.0018 5.59471 3.59992 8.03207 4.92283 10.3476C5.66847 9.86651 6.32111 9.36781 7.0443 9.0006C9.62117 7.69693 12.2413 7.46603 14.839 8.92363C16.3111 9.75105 17.3197 10.9329 17.2876 12.7416C17.2556 14.5504 16.2902 15.8076 14.722 16.5709C12.3055 17.7478 9.86651 17.6404 7.51413 16.364C6.65304 15.8958 5.86891 15.288 4.98376 14.6995C3.50531 17.0182 3.05953 19.5855 2.94728 22.342H21.0383V25.1465H0.0448988C0 20.9453 0.285428 16.8579 2.56564 13.1586C2.726 12.9004 2.82381 12.4161 2.68912 12.1964C0.715173 9.01022 0.104229 5.49208 0.0384847 1.83123C0.02726 1.22028 0.0128282 0.610944 0 0H21.1393ZM6.92724 12.6534C7.91662 13.2083 8.83704 13.8449 9.84887 14.257C11.0547 14.7525 12.3231 14.6033 13.4841 14.0164C14.7444 13.375 14.7669 12.2814 13.6059 11.4957C11.7587 10.2626 8.5933 10.7436 6.92724 12.6534Z" fill="#FC4A5A"/>
<path d="M122.991 25.6901H120.152C120.061 24.0353 119.976 22.4927 119.893 20.9501L119.785 20.9084L119.421 21.8176C118.619 23.8188 117.41 25.4239 115.132 25.8056C111.027 26.4935 107.308 23.8813 106.553 19.7747C106.008 16.813 106.447 14.0645 108.541 11.7282C110.408 9.64366 113.748 8.78257 116.398 9.71743C117.98 10.277 118.897 11.462 119.469 12.9693C119.564 13.2163 119.654 13.4664 119.751 13.7118C119.767 13.7519 119.824 13.7759 119.965 13.8946C119.965 12.6839 119.99 11.5582 119.955 10.4358C119.939 9.88901 120.115 9.66611 120.675 9.69658C121.448 9.73988 122.223 9.72384 122.995 9.73346L122.991 25.6901ZM114.652 23.3281C117.859 23.3281 119.944 21.0912 119.944 17.6356C119.944 14.18 117.859 11.9463 114.644 11.9431C111.429 11.9399 109.337 14.1992 109.332 17.6292C109.341 21.0239 111.487 23.3249 114.66 23.3281H114.652Z" fill="#FC4A5A"/>
<path d="M40.4779 25.5939H37.5226C37.5081 25.2732 37.4841 24.9878 37.4841 24.7039C37.4841 21.8609 37.4841 19.0162 37.4841 16.1716C37.4833 15.7207 37.4447 15.2706 37.3686 14.8262C37.0896 13.2227 36.2461 12.4001 34.6426 12.1355C32.3512 11.7555 29.9234 12.8972 28.8411 14.9545C28.5413 15.5396 28.3769 16.1846 28.36 16.8419C28.3071 19.446 28.3375 22.0517 28.3375 24.6574V25.5779H25.3871V9.78958H28.2894V13.7984L28.4498 13.8994C29.5931 11.2568 31.3538 9.46085 34.4021 9.38709C37.3943 9.31974 39.4596 10.5929 40.2838 13.3959C41.0375 12.4867 41.6805 11.4572 42.5608 10.7019C44.4113 9.1177 47.5109 8.92528 49.6308 10.1279C51.2183 11.0259 52.0858 12.4722 52.1596 14.2265C52.2959 17.4336 52.2622 20.655 52.2878 23.8701C52.3007 25.634 52.2878 25.634 50.5384 25.634H49.3662C49.3486 25.2443 49.3229 24.9333 49.3229 24.6238C49.3229 21.8593 49.3229 19.0948 49.3229 16.3319C49.3206 15.8806 49.2868 15.43 49.2219 14.9834C48.9798 13.274 48.0128 12.3007 46.3019 12.1211C44.0056 11.8789 42.1744 12.7368 40.8691 14.6258C40.6308 15.0002 40.503 15.4343 40.5003 15.8781C40.4698 18.8014 40.4843 21.7262 40.4843 24.6494L40.4779 25.5939Z" fill="#FC4A5A"/>
<path d="M59.4476 32H56.4618V9.72698C57.286 9.72698 58.1263 9.70613 58.9617 9.75263C59.0788 9.75263 59.2664 10.0942 59.2696 10.2802C59.2985 11.4444 59.284 12.6101 59.284 13.7759L59.5246 13.8128C59.7042 13.3943 59.8757 12.9725 60.0633 12.5588C60.9293 10.6346 62.443 9.66284 64.5228 9.42391C69.5691 8.84504 72.7232 12.801 72.9782 16.9701C73.1626 19.9751 72.2935 22.5953 69.8352 24.5147C67.377 26.4342 63.883 26.4662 61.7118 24.5933C60.7497 23.7659 60.2205 22.6691 59.7875 21.5177C59.7249 21.2976 59.6061 21.0976 59.4428 20.9373L59.4476 32ZM64.6382 23.3281C67.7266 23.3281 69.8914 21.1634 69.9667 17.8938C70.018 15.7049 69.3895 13.747 67.3658 12.6021C64.0738 10.7372 60.1499 12.6887 59.5198 16.4362C58.8495 20.4049 61.0126 23.3201 64.6382 23.3281Z" fill="#FC4A5A"/>
<path d="M84.0007 9.38541C88.1827 9.37579 91.3689 11.6801 92.2909 15.381C93.3717 19.7234 91.4779 23.7194 87.5878 25.3117C83.4731 26.9922 78.5214 25.533 76.5234 21.8994C75.0001 19.1285 75.0354 16.2101 76.5234 13.4279C77.941 10.7757 80.6573 9.39343 84.0007 9.38541ZM84.06 23.3506C87.2992 23.3506 89.5297 21.0351 89.5329 17.6853C89.5361 14.3355 87.211 11.9206 84.0248 11.9302C80.76 11.9415 78.4397 14.3596 78.4637 17.7286C78.4878 21.0976 80.7199 23.357 84.06 23.3506Z" fill="#FC4A5A"/>
<path d="M98.835 13.808C99.9687 11.4797 101.226 9.50411 104.268 9.39026C104.268 10.2995 104.295 11.1397 104.242 11.9735C104.233 12.1243 103.897 12.3536 103.694 12.376C101.296 12.6454 99.8998 14.1223 99.0034 16.1956C98.8794 16.5446 98.825 16.9145 98.8431 17.2844C98.8286 19.7811 98.819 22.2778 98.8431 24.7729C98.8511 25.3983 98.7212 25.6597 98.0156 25.6516C95.8188 25.6244 95.8188 25.6516 95.8188 23.4516C95.8188 19.1493 95.8316 14.8471 95.8044 10.5448C95.8044 9.88254 95.9904 9.68531 96.6542 9.68851C98.8318 9.69814 98.8318 9.67408 98.8318 11.8549L98.835 13.808Z" fill="#FC4A5A"/>
</g>
<defs>
<clipPath id="clip0_81_2">
<rect width="123" height="32" fill="white"/>
</clipPath>
</defs>
</svg>
